<svg width="18" height="14" viewBox="0 0 18 14" fill="none" xmlns="http://www.w3.org/2000/svg">
<path fill-rule="evenodd" clip-rule="evenodd" d="M1.125 13.75C1.125 13.75 0 13.75 0 12.625C0 11.5 1.125 8.125 6.75 8.125C12.375 8.125 13.5 11.5 13.5 12.625C13.5 13.75 12.375 13.75 12.375 13.75H1.125ZM6.75 7C7.64511 7 8.50355 6.64442 9.13649 6.01149C9.76942 5.37855 10.125 4.52011 10.125 3.625C10.125 2.72989 9.76942 1.87145 9.13649 1.23851C8.50355 0.605579 7.64511 0.25 6.75 0.25C5.85489 0.25 4.99645 0.605579 4.36351 1.23851C3.73058 1.87145 3.375 2.72989 3.375 3.625C3.375 4.52011 3.73058 5.37855 4.36351 6.01149C4.99645 6.64442 5.85489 7 6.75 7ZM13.6642 3.78925C13.7165 3.73687 13.7786 3.69531 13.8469 3.66695C13.9153 3.63859 13.9885 3.62399 14.0625 3.62399C14.1365 3.62399 14.2097 3.63859 14.2781 3.66695C14.3464 3.69531 14.4085 3.73687 14.4608 3.78925L15.75 5.07963L17.0392 3.78925C17.1449 3.68363 17.2881 3.62429 17.4375 3.62429C17.5869 3.62429 17.7301 3.68363 17.8358 3.78925C17.9414 3.89487 18.0007 4.03813 18.0007 4.1875C18.0007 4.33687 17.9414 4.48013 17.8358 4.58575L16.5454 5.875L17.8358 7.16425C17.9414 7.26987 18.0007 7.41313 18.0007 7.5625C18.0007 7.71187 17.9414 7.85513 17.8358 7.96075C17.7301 8.06637 17.5869 8.12571 17.4375 8.12571C17.2881 8.12571 17.1449 8.06637 17.0392 7.96075L15.75 6.67037L14.4608 7.96075C14.3551 8.06637 14.2119 8.12571 14.0625 8.12571C13.9131 8.12571 13.7699 8.06637 13.6642 7.96075C13.5586 7.85513 13.4993 7.71187 13.4993 7.5625C13.4993 7.41313 13.5586 7.26987 13.6642 7.16425L14.9546 5.875L13.6642 4.58575C13.6119 4.5335 13.5703 4.47143 13.5419 4.40309C13.5136 4.33475 13.499 4.26149 13.499 4.1875C13.499 4.11351 13.5136 4.04025 13.5419 3.97191C13.5703 3.90357 13.6119 3.8415 13.6642 3.78925Z" fill="black"/>
</svg>
