<svg width="18" height="18" viewBox="0 0 18 18" fill="none" xmlns="http://www.w3.org/2000/svg">
<path d="M9.5625 6.75C9.5625 6.60082 9.50324 6.45774 9.39775 6.35225C9.29226 6.24676 9.14918 6.1875 9 6.1875C8.85082 6.1875 8.70774 6.24676 8.60225 6.35225C8.49676 6.45774 8.4375 6.60082 8.4375 6.75V8.4375H6.75C6.60082 8.4375 6.45774 8.49676 6.35225 8.60225C6.24676 8.70774 6.1875 8.85082 6.1875 9C6.1875 9.14918 6.24676 9.29226 6.35225 9.39775C6.45774 9.50324 6.60082 9.5625 6.75 9.5625H8.4375V11.25C8.4375 11.3992 8.49676 11.5423 8.60225 11.6477C8.70774 11.7532 8.85082 11.8125 9 11.8125C9.14918 11.8125 9.29226 11.7532 9.39775 11.6477C9.50324 11.5423 9.5625 11.3992 9.5625 11.25V9.5625H11.25C11.3992 9.5625 11.5423 9.50324 11.6477 9.39775C11.7532 9.29226 11.8125 9.14918 11.8125 9C11.8125 8.85082 11.7532 8.70774 11.6477 8.60225C11.5423 8.49676 11.3992 8.4375 11.25 8.4375H9.5625V6.75Z" fill="black"/>
<path d="M2.25 2.25C2.25 1.65326 2.48705 1.08097 2.90901 0.65901C3.33097 0.237053 3.90326 0 4.5 0L13.5 0C14.0967 0 14.669 0.237053 15.091 0.65901C15.5129 1.08097 15.75 1.65326 15.75 2.25V15.75C15.75 16.3467 15.5129 16.919 15.091 17.341C14.669 17.7629 14.0967 18 13.5 18H4.5C3.90326 18 3.33097 17.7629 2.90901 17.341C2.48705 16.919 2.25 16.3467 2.25 15.75V2.25ZM13.5 1.125H4.5C4.20163 1.125 3.91548 1.24353 3.7045 1.4545C3.49353 1.66548 3.375 1.95163 3.375 2.25V15.75C3.375 16.0484 3.49353 16.3345 3.7045 16.5455C3.91548 16.7565 4.20163 16.875 4.5 16.875H13.5C13.7984 16.875 14.0845 16.7565 14.2955 16.5455C14.5065 16.3345 14.625 16.0484 14.625 15.75V2.25C14.625 1.95163 14.5065 1.66548 14.2955 1.4545C14.0845 1.24353 13.7984 1.125 13.5 1.125Z" fill="black"/>
</svg>
