<svg width="18" height="18" viewBox="0 0 18 18" fill="none" xmlns="http://www.w3.org/2000/svg">
<path d="M17.4398 2.18252C17.5449 2.28795 17.6039 2.43076 17.6039 2.57964C17.6039 2.72852 17.5449 2.87133 17.4398 2.97676L16.2664 4.15127L14.0164 1.90127L15.1898 0.726765C15.2953 0.621313 15.4383 0.562073 15.5875 0.562073C15.7366 0.562073 15.8797 0.621313 15.9852 0.726765L17.4398 2.18139V2.18252ZM15.471 4.94552L13.221 2.69552L5.55642 10.3613C5.4945 10.4232 5.44789 10.4987 5.4203 10.5818L4.51467 13.2975C4.49825 13.347 4.49592 13.4001 4.50794 13.4509C4.51996 13.5016 4.54586 13.5481 4.58274 13.5849C4.61963 13.6218 4.66604 13.6477 4.7168 13.6597C4.76756 13.6718 4.82066 13.6694 4.87017 13.653L7.58592 12.7474C7.66891 12.7201 7.7444 12.6739 7.80642 12.6124L15.471 4.94664V4.94552Z" fill="black"/>
<path fill-rule="evenodd" clip-rule="evenodd" d="M1.125 15.1875C1.125 15.6351 1.30279 16.0643 1.61926 16.3807C1.93572 16.6972 2.36495 16.875 2.8125 16.875H15.1875C15.6351 16.875 16.0643 16.6972 16.3807 16.3807C16.6972 16.0643 16.875 15.6351 16.875 15.1875V8.4375C16.875 8.28832 16.8157 8.14524 16.7102 8.03975C16.6048 7.93426 16.4617 7.875 16.3125 7.875C16.1633 7.875 16.0202 7.93426 15.9148 8.03975C15.8093 8.14524 15.75 8.28832 15.75 8.4375V15.1875C15.75 15.3367 15.6907 15.4798 15.5852 15.5852C15.4798 15.6907 15.3367 15.75 15.1875 15.75H2.8125C2.66332 15.75 2.52024 15.6907 2.41475 15.5852C2.30926 15.4798 2.25 15.3367 2.25 15.1875V2.8125C2.25 2.66332 2.30926 2.52024 2.41475 2.41475C2.52024 2.30926 2.66332 2.25 2.8125 2.25H10.125C10.2742 2.25 10.4173 2.19074 10.5227 2.08525C10.6282 1.97976 10.6875 1.83668 10.6875 1.6875C10.6875 1.53832 10.6282 1.39524 10.5227 1.28975C10.4173 1.18426 10.2742 1.125 10.125 1.125H2.8125C2.36495 1.125 1.93572 1.30279 1.61926 1.61926C1.30279 1.93572 1.125 2.36495 1.125 2.8125V15.1875Z" fill="black"/>
</svg>
