<svg width="32" height="32" viewBox="0 0 32 32" fill="none" xmlns="http://www.w3.org/2000/svg">
<path d="M12.2 1C12.2 1.26522 12.0946 1.51957 11.9071 1.70711C11.7195 1.89464 11.4652 2 11.2 2L6.19995 2C5.66952 2 5.16081 2.21071 4.78574 2.58579C4.41066 2.96086 4.19995 3.46957 4.19995 4L4.19995 28C4.19995 28.5304 4.41066 29.0391 4.78574 29.4142C5.16081 29.7893 5.66952 30 6.19995 30H11.2C11.4652 30 11.7195 30.1054 11.9071 30.2929C12.0946 30.4804 12.2 30.7348 12.2 31C12.2 31.2652 12.0946 31.5196 11.9071 31.7071C11.7195 31.8946 11.4652 32 11.2 32H6.19995C5.13909 32 4.12167 31.5786 3.37152 30.8284C2.62138 30.0783 2.19995 29.0609 2.19995 28L2.19995 4C2.19995 2.93913 2.62138 1.92172 3.37152 1.17157C4.12167 0.421427 5.13909 0 6.19995 0L11.2 0C11.4652 0 11.7195 0.105357 11.9071 0.292893C12.0946 0.48043 12.2 0.734784 12.2 1Z" fill="black"/>
<path d="M29.7079 15.292C29.801 15.3849 29.8749 15.4952 29.9253 15.6167C29.9758 15.7382 30.0017 15.8684 30.0017 16C30.0017 16.1315 29.9758 16.2618 29.9253 16.3832C29.8749 16.5047 29.801 16.6151 29.7079 16.708L23.7079 22.708C23.5201 22.8958 23.2655 23.0012 22.9999 23.0012C22.7344 23.0012 22.4797 22.8958 22.2919 22.708C22.1041 22.5202 21.9987 22.2655 21.9987 22C21.9987 21.7344 22.1041 21.4798 22.2919 21.292L26.5859 17H8.99992C8.7347 17 8.48035 16.8946 8.29281 16.7071C8.10528 16.5196 7.99992 16.2652 7.99992 16C7.99992 15.7348 8.10528 15.4804 8.29281 15.2929C8.48035 15.1053 8.7347 15 8.99992 15H26.5859L22.2919 10.708C22.1989 10.615 22.1252 10.5046 22.0749 10.3831C22.0246 10.2617 21.9987 10.1315 21.9987 9.99998C21.9987 9.86849 22.0246 9.73829 22.0749 9.61681C22.1252 9.49534 22.1989 9.38496 22.2919 9.29198C22.3849 9.19901 22.4953 9.12525 22.6168 9.07493C22.7382 9.02462 22.8684 8.99872 22.9999 8.99872C23.1314 8.99872 23.2616 9.02462 23.3831 9.07493C23.5046 9.12525 23.6149 9.19901 23.7079 9.29198L29.7079 15.292Z" fill="black"/>
</svg>
